<?xml version="1.0" encoding="UTF-8" standalone="no"?>
<!DOCTYPE svg PUBLIC "-//W3C//DTD SVG 1.1//EN"
 "http://www.w3.org/Graphics/SVG/1.1/DTD/svg11.dtd">
<!-- Generated by graphviz version 2.38.0 (20140413.2041)
 -->
<!-- Title: fsm2 Pages: 1 -->
<svg width="326pt" height="106pt"
 viewBox="0.00 0.00 326.00 106.00" xmlns="http://www.w3.org/2000/svg" xmlns:xlink="http://www.w3.org/1999/xlink">
<g id="graph0" class="graph" transform="scale(1 1) rotate(0) translate(4 102)">
<title>fsm2</title>
<polygon fill="white" stroke="none" points="-4,4 -4,-102 322,-102 322,4 -4,4"/>
<!-- A -->
<g id="node1" class="node"><title>A</title>
<ellipse fill="none" stroke="black" cx="18" cy="-35" rx="18" ry="18"/>
<text text-anchor="middle" x="18" y="-31.3" font-family="Times,serif" font-size="14.00">A</text>
</g>
<!-- A&#45;&gt;A -->
<g id="edge1" class="edge"><title>A&#45;&gt;A</title>
<path fill="none" stroke="black" d="M9.98355,-51.2903C8.05051,-61.3892 10.7227,-71 18,-71 22.662,-71 25.4341,-67.0557 26.3162,-61.5656"/>
<polygon fill="black" stroke="black" points="29.8067,-61.1839 26.0164,-51.2903 22.8097,-61.3881 29.8067,-61.1839"/>
<text text-anchor="middle" x="18" y="-74.8" font-family="Times,serif" font-size="14.00">nop</text>
</g>
<!-- B -->
<g id="node2" class="node"><title>B</title>
<ellipse fill="none" stroke="black" cx="112" cy="-65" rx="18" ry="18"/>
<text text-anchor="middle" x="112" y="-61.3" font-family="Times,serif" font-size="14.00">B</text>
</g>
<!-- A&#45;&gt;B -->
<g id="edge2" class="edge"><title>A&#45;&gt;B</title>
<path fill="none" stroke="black" d="M35.4478,-40.3634C49.1845,-44.8428 69.0187,-51.3104 84.9182,-56.4951"/>
<polygon fill="black" stroke="black" points="84.1022,-59.9103 94.6946,-59.683 86.2724,-53.2552 84.1022,-59.9103"/>
<text text-anchor="middle" x="65" y="-56.8" font-family="Times,serif" font-size="14.00">pop</text>
</g>
<!-- C -->
<g id="node3" class="node"><title>C</title>
<ellipse fill="none" stroke="black" cx="206" cy="-18" rx="18" ry="18"/>
<text text-anchor="middle" x="206" y="-14.3" font-family="Times,serif" font-size="14.00">C</text>
</g>
<!-- B&#45;&gt;C -->
<g id="edge3" class="edge"><title>B&#45;&gt;C</title>
<path fill="none" stroke="black" d="M128.607,-57.0271C142.834,-49.7585 164.084,-38.9029 180.562,-30.4845"/>
<polygon fill="black" stroke="black" points="182.311,-33.5215 189.624,-25.8552 179.126,-27.2878 182.311,-33.5215"/>
<text text-anchor="middle" x="159" y="-50.8" font-family="Times,serif" font-size="14.00">nop</text>
</g>
<!-- D -->
<g id="node4" class="node"><title>D</title>
<ellipse fill="none" stroke="black" cx="300" cy="-47" rx="18" ry="18"/>
<text text-anchor="middle" x="300" y="-43.3" font-family="Times,serif" font-size="14.00">D</text>
</g>
<!-- B&#45;&gt;D -->
<g id="edge4" class="edge"><title>B&#45;&gt;D</title>
<path fill="none" stroke="black" d="M130.224,-64.6662C141.539,-64.3803 156.661,-63.8718 170,-63 211.879,-60.2629 222.48,-60.1233 264,-54 266.722,-53.5985 269.553,-53.1257 272.373,-52.6184"/>
<polygon fill="black" stroke="black" points="273.171,-56.029 282.326,-50.6954 271.843,-49.1561 273.171,-56.029"/>
<text text-anchor="middle" x="206" y="-64.8" font-family="Times,serif" font-size="14.00">pop</text>
</g>
<!-- C&#45;&gt;A -->
<g id="edge7" class="edge"><title>C&#45;&gt;A</title>
<path fill="none" stroke="black" d="M187.651,-18.1722C165.768,-18.5294 127.008,-19.627 94,-23 78.0061,-24.6344 60.2351,-27.4339 46.0074,-29.9179"/>
<polygon fill="black" stroke="black" points="45.1303,-26.5194 35.9062,-31.7315 46.3673,-33.4092 45.1303,-26.5194"/>
<text text-anchor="middle" x="112" y="-26.8" font-family="Times,serif" font-size="14.00">nop</text>
</g>
<!-- C&#45;&gt;D -->
<g id="edge8" class="edge"><title>C&#45;&gt;D</title>
<path fill="none" stroke="black" d="M223.448,-23.1846C237.185,-27.5147 257.019,-33.7668 272.918,-38.7786"/>
<polygon fill="black" stroke="black" points="272.105,-42.1919 282.695,-41.8603 274.209,-35.5158 272.105,-42.1919"/>
<text text-anchor="middle" x="253" y="-38.8" font-family="Times,serif" font-size="14.00">pop</text>
</g>
<!-- D&#45;&gt;C -->
<g id="edge6" class="edge"><title>D&#45;&gt;C</title>
<path fill="none" stroke="black" d="M289.583,-32.2373C283.418,-24.0162 274.558,-14.5459 264,-10 254.327,-5.83506 242.958,-6.45524 232.929,-8.62653"/>
<polygon fill="black" stroke="black" points="231.813,-5.30296 223.089,-11.3152 233.658,-12.0554 231.813,-5.30296"/>
<text text-anchor="middle" x="253" y="-13.8" font-family="Times,serif" font-size="14.00">nop</text>
</g>
<!-- D&#45;&gt;D -->
<g id="edge5" class="edge"><title>D&#45;&gt;D</title>
<path fill="none" stroke="black" d="M291.984,-63.2903C290.051,-73.3892 292.723,-83 300,-83 304.662,-83 307.434,-79.0557 308.316,-73.5656"/>
<polygon fill="black" stroke="black" points="311.807,-73.1839 308.016,-63.2903 304.81,-73.3881 311.807,-73.1839"/>
<text text-anchor="middle" x="300" y="-86.8" font-family="Times,serif" font-size="14.00">pop</text>
</g>
</g>
</svg>
