<?xml version="1.0" encoding="UTF-8" standalone="no"?>
<!DOCTYPE svg PUBLIC "-//W3C//DTD SVG 1.1//EN"
 "http://www.w3.org/Graphics/SVG/1.1/DTD/svg11.dtd">
<!-- Generated by graphviz version 2.38.0 (20140413.2041)
 -->
<!-- Title: fsm2 Pages: 1 -->
<svg width="373pt" height="146pt"
 viewBox="0.00 0.00 372.50 146.00" xmlns="http://www.w3.org/2000/svg" xmlns:xlink="http://www.w3.org/1999/xlink">
<g id="graph0" class="graph" transform="scale(1 1) rotate(0) translate(4 142)">
<title>fsm2</title>
<polygon fill="white" stroke="none" points="-4,4 -4,-142 368.5,-142 368.5,4 -4,4"/>
<!-- A -->
<g id="node1" class="node"><title>A</title>
<ellipse fill="none" stroke="black" cx="27.5" cy="-87" rx="18" ry="18"/>
<text text-anchor="middle" x="27.5" y="-83.3" font-family="Times,serif" font-size="14.00">A</text>
</g>
<!-- A&#45;&gt;A -->
<g id="edge1" class="edge"><title>A&#45;&gt;A</title>
<path fill="none" stroke="black" d="M19.135,-103.29C17.1179,-113.389 19.9062,-123 27.5,-123 32.3647,-123 35.2573,-119.056 36.1778,-113.566"/>
<polygon fill="black" stroke="black" points="39.6677,-113.179 35.865,-103.29 32.671,-113.392 39.6677,-113.179"/>
<text text-anchor="middle" x="27.5" y="-126.8" font-family="Times,serif" font-size="14.00">nop, push</text>
</g>
<!-- B -->
<g id="node2" class="node"><title>B</title>
<ellipse fill="none" stroke="black" cx="125.5" cy="-79" rx="18" ry="18"/>
<text text-anchor="middle" x="125.5" y="-75.3" font-family="Times,serif" font-size="14.00">B</text>
</g>
<!-- A&#45;&gt;B -->
<g id="edge2" class="edge"><title>A&#45;&gt;B</title>
<path fill="none" stroke="black" d="M43.2168,-77.4577C49.2499,-74.083 56.4605,-70.7041 63.5,-69 74.8822,-66.2447 87.6446,-67.6554 98.5424,-70.1812"/>
<polygon fill="black" stroke="black" points="97.7451,-73.5915 108.314,-72.8448 99.5862,-66.8379 97.7451,-73.5915"/>
<text text-anchor="middle" x="76.5" y="-72.8" font-family="Times,serif" font-size="14.00">pop</text>
</g>
<!-- B&#45;&gt;A -->
<g id="edge5" class="edge"><title>B&#45;&gt;A</title>
<path fill="none" stroke="black" d="M107.448,-81.7594C101.754,-82.5944 95.3657,-83.438 89.5,-84 78.533,-85.0508 66.4194,-85.7428 55.8967,-86.1941"/>
<polygon fill="black" stroke="black" points="55.4823,-82.7072 45.6216,-86.5824 55.7466,-89.7022 55.4823,-82.7072"/>
<text text-anchor="middle" x="76.5" y="-88.8" font-family="Times,serif" font-size="14.00">push</text>
</g>
<!-- C -->
<g id="node3" class="node"><title>C</title>
<ellipse fill="none" stroke="black" cx="346.5" cy="-87" rx="18" ry="18"/>
<text text-anchor="middle" x="346.5" y="-83.3" font-family="Times,serif" font-size="14.00">C</text>
</g>
<!-- B&#45;&gt;C -->
<g id="edge3" class="edge"><title>B&#45;&gt;C</title>
<path fill="none" stroke="black" d="M143.576,-80.6645C149.271,-81.1661 155.655,-81.6703 161.5,-82 217.016,-85.1309 282.068,-86.3156 318.046,-86.7533"/>
<polygon fill="black" stroke="black" points="318.198,-90.2551 328.236,-86.8665 318.276,-83.2555 318.198,-90.2551"/>
<text text-anchor="middle" x="252.5" y="-88.8" font-family="Times,serif" font-size="14.00">nop</text>
</g>
<!-- D -->
<g id="node4" class="node"><title>D</title>
<ellipse fill="none" stroke="black" cx="252.5" cy="-18" rx="18" ry="18"/>
<text text-anchor="middle" x="252.5" y="-14.3" font-family="Times,serif" font-size="14.00">D</text>
</g>
<!-- B&#45;&gt;D -->
<g id="edge4" class="edge"><title>B&#45;&gt;D</title>
<path fill="none" stroke="black" d="M142.316,-72.3185C160.455,-64.5357 190.978,-51.0704 216.5,-38 220.179,-36.1158 224.024,-34.0365 227.761,-31.9523"/>
<polygon fill="black" stroke="black" points="229.723,-34.8629 236.677,-26.8701 226.256,-28.7815 229.723,-34.8629"/>
<text text-anchor="middle" x="189" y="-66.8" font-family="Times,serif" font-size="14.00">pop</text>
</g>
<!-- C&#45;&gt;A -->
<g id="edge9" class="edge"><title>C&#45;&gt;A</title>
<path fill="none" stroke="black" d="M329.734,-93.8333C323.806,-96.1409 316.941,-98.5078 310.5,-100 293.095,-104.032 288.337,-102.97 270.5,-104 178.653,-109.306 152.667,-126.653 63.5,-104 59.8131,-103.063 56.0546,-101.716 52.4345,-100.184"/>
<polygon fill="black" stroke="black" points="53.8536,-96.9837 43.3192,-95.8538 50.8498,-103.306 53.8536,-96.9837"/>
<text text-anchor="middle" x="189" y="-117.8" font-family="Times,serif" font-size="14.00">nop, push</text>
</g>
<!-- C&#45;&gt;D -->
<g id="edge10" class="edge"><title>C&#45;&gt;D</title>
<path fill="none" stroke="black" d="M330.666,-77.4878C318.977,-69.8415 302.39,-58.6548 288.5,-48 283.817,-44.4077 278.927,-40.3953 274.339,-36.5031"/>
<polygon fill="black" stroke="black" points="276.37,-33.6325 266.514,-29.7436 271.794,-38.9295 276.37,-33.6325"/>
<text text-anchor="middle" x="299.5" y="-66.8" font-family="Times,serif" font-size="14.00">pop</text>
</g>
<!-- D&#45;&gt;A -->
<g id="edge8" class="edge"><title>D&#45;&gt;A</title>
<path fill="none" stroke="black" d="M234.143,-18.07C206.561,-18.6669 151.358,-21.8574 107.5,-37 86.3378,-44.3065 65.0464,-58.2543 49.9082,-69.5659"/>
<polygon fill="black" stroke="black" points="47.5373,-66.9743 41.7536,-75.8512 51.8107,-72.5185 47.5373,-66.9743"/>
<text text-anchor="middle" x="125.5" y="-40.8" font-family="Times,serif" font-size="14.00">push</text>
</g>
<!-- D&#45;&gt;C -->
<g id="edge6" class="edge"><title>D&#45;&gt;C</title>
<path fill="none" stroke="black" d="M270.597,-19.2399C282.708,-20.8491 298.812,-24.5403 310.5,-33 320.478,-40.2219 328.353,-51.2389 334.086,-61.4426"/>
<polygon fill="black" stroke="black" points="331.044,-63.1793 338.747,-70.4526 337.261,-59.9626 331.044,-63.1793"/>
<text text-anchor="middle" x="299.5" y="-36.8" font-family="Times,serif" font-size="14.00">nop</text>
</g>
<!-- D&#45;&gt;D -->
<g id="edge7" class="edge"><title>D&#45;&gt;D</title>
<path fill="none" stroke="black" d="M244.484,-34.2903C242.551,-44.3892 245.223,-54 252.5,-54 257.162,-54 259.934,-50.0557 260.816,-44.5656"/>
<polygon fill="black" stroke="black" points="264.307,-44.1839 260.516,-34.2903 257.31,-44.3881 264.307,-44.1839"/>
<text text-anchor="middle" x="252.5" y="-57.8" font-family="Times,serif" font-size="14.00">pop</text>
</g>
</g>
</svg>
